{"title":"See No Evil - S01E01 - We See You, Kelsey","uid":15312547,"size":1176450808,"categoryP":"video","categoryS":"tv_shows","magnet":"?xt=urn:btih:7953dd29277dc04974bf7993951d8b1745292ad3&amp;dn=See+No+Evil+-+S01E01+-+We+See+You%2C+Kelsey&amp;tr=udp%3A%2F%2Ftracker.leechers-paradise.org%3A6969&amp;tr=udp%3A%2F%2Fzer0day.ch%3A1337&amp;tr=udp%3A%2F%2Fopen.demonii.com%3A1337&amp;tr=udp%3A%2F%2Ftracker.coppersurfer.tk%3A6969&amp;tr=udp%3A%2F%2Fexodus.desync.com%3A6969","seeders":4,"leechers":1,"uploader":"Bullrout","files":1,"time":1468596842,"description":"See No Evil - S01E01 - We See You, Kelsey\r\n\r\nA teenage girl disappears from a Kansas Mall. The only clue for detectives - the haunting final images of her on surveillance video. Somewhere in these frames hides the answer - and a killer....\r\n\r\nComplete name                            : See No Evil - S01E01 - We See You, Kelsey.mkv\r\nFormat                                   : Matroska\r\nFormat version                           : Version 4 / Version 2\r\nFile size                                : 1.10 GiB\r\nDuration                                 : 47mn 5s\r\nOverall bit rate mode                    : Variable\r\nOverall bit rate                         : 3 332 Kbps\r\nEncoded date                             : UTC 2016-07-15 02:25:11\r\nWriting application                      : mkvmerge v9.3.1 ('Mask Machine') 64bit\r\nWriting library                          : libebml v1.3.4 + libmatroska v1.4.5\r\n\r\nVideo\r\nID                                       : 2\r\nFormat                                   : AVC\r\nFormat/Info                              : Advanced Video Codec\r\nFormat profile                           :   \r\nFormat settings, CABAC                   : Yes\r\nFormat settings, ReFrames                : 3 frames\r\nCodec ID                                 : V_MPEG4/ISO/AVC\r\nDuration                                 : 47mn 5s\r\nBit rate mode                            : Variable\r\nBit rate                                 : 2 946 Kbps\r\nMaximum bit rate                         : 3 000 Kbps\r\nWidth                                    : 1 280 pixels\r\nHeight                                   : 720 pixels\r\nDisplay aspect ratio                     : 16:9\r\nFrame rate mode                          : Constant\r\nFrame rate                               : 25.000 fps\r\nStandard                                 : PAL\r\nColor space                              : YUV\r\nChroma subsampling                       : 4:2:0\r\nBit depth                                : 8 bits\r\nScan type                                : Progressive\r\nBits/(Pixel*Frame)                       : 0.128\r\nStream size                              : 992 MiB (88%)\r\nWriting library                          : x264 core 112\r\nDefault                                  : Yes\r\nForced                                   : No\r\nColor range                              : Limited\r\nColor primaries                          : BT.709\r\nTransfer characteristics                 : BT.709\r\nMatrix coefficients                      : BT.709\r\n\r\nAudio\r\nID                                       : 1\r\nFormat                                   : AC-3\r\nFormat/Info                              : Audio Coding 3\r\nMode extension                           : CM (complete main)\r\nFormat settings, Endianness              : Big\r\nCodec ID                                 : A_AC3\r\nDuration                                 : 47mn 5s\r\nBit rate mode                            : Constant\r\nBit rate                                 : 384 Kbps\r\nChannel(s)                               : 6 channels\r\nChannel positions                        : Front: L C R, Side: L R, LFE\r\nSampling rate                            : 48.0 KHz\r\nFrame rate                               : 31.250 fps (1536 spf)\r\nCompression mode                         : Lossy\r\nStream size                              : 129 MiB (12%)\r\nDefault                                  : Yes\r\nForced                                   : No","torrent":{"xt":"urn:btih:7953dd29277dc04974bf7993951d8b1745292ad3","amp;dn":"See+No+Evil+-+S01E01+-+We+See+You%2C+Kelsey","amp;tr":["udp%3A%2F%2Ftracker.leechers-paradise.org%3A6969","udp%3A%2F%2Fzer0day.ch%3A1337","udp%3A%2F%2Fopen.demonii.com%3A1337","udp%3A%2F%2Ftracker.coppersurfer.tk%3A6969","udp%3A%2F%2Fexodus.desync.com%3A6969"],"infoHash":"7953dd29277dc04974bf7993951d8b1745292ad3","infoHashBuffer":{"type":"Buffer","data":[121,83,221,41,39,125,192,73,116,191,121,147,149,29,139,23,69,41,42,211]},"announce":[],"urlList":[]}}